<svg width="24" height="24" xmlns="http://www.w3.org/2000/svg" fill-rule="evenodd" clip-rule="evenodd"><path d="M9.666 4.083c-.137.554-.21 1.133-.21 1.728 0 .322.02.635.059.94l-.037-.011c-.426-.147-1.336.541-1.481.546-.055.002.001-.52.292-.558-.09.013.461-.285.778-.503-.661.161-1.291.403-1.877.717.03.031.021.072-.116.161-.148.088-.305.655-.444.655-.414.181-.44-.355-.9.335-.042.062-.169.098-.308.133-1.24 1.189-2.098 2.772-2.372 4.547l.145.092c.092.109.092.583.137.737.113.392.392.609.606.966.126.213.336.749.27.971.089-.145.877.669 1.02.838.339.399.602.882.05 1.276-.177.129.27.926.039 1.122l-.296.075c-.12.073-.168.191-.171.316 1.468 1.734 3.659 2.834 6.106 2.834 4.231 0 7.698-3.29 7.981-7.449.684-.597 1.339-1.183 1.945-1.774.049.401.074.809.074 1.223 0 5.52-4.48 10-10 10-5.519 0-10-4.48-10-10 0-5.082 3.799-9.283 8.71-9.917zm6.892 11.777l-.755 1.188c-.139.26.112.902.092 1.209-.024.354-.303.469-.569.661-.282.208-.216.611-.454.758-.424.261-.728 1.109-1.33 1.105-.177-.001-.934.295-1.033.006-.077-.21-.18-.37-.289-.577-.106-.204-.012-.413-.141-.592-.09-.124-.389-.408-.416-.555-.002-.127.096-.513.23-.58.188-.096.035-.375.012-.537-.039-.29-.218-.53-.434-.697-.318-.246-.154-.44-.079-.791 0-.167-.102-.385-.327-.32-.462.135-.321-.361-.658-.338-.242.018-.441.171-.667.24-.283.084-.573-.068-.853-.103-1.153-.146-1.529-1.463-1.228-2.414.03-.155-.094-.444-.039-.565.129-.288.394-.612.624-.831.129-.122.296-.091.448-.186.235-.148.238-.453.468-.64.328-.267.776-.261 1.203-.318.164-.022.663-.126.978-.118.102.133.267.343.524.639 1.114 1.286 2.523 2.503 4.02 3.797l.673.559zm-6.252-6.602c.143.279.302.552.476.82l-.08.152c-.122.045-.235.104-.343.176l-.129.288c-.056.05-.626.239-.63.246.025-.062-.399-.14-.371-.263.031-.135.175-.557.138-.711-.039-.162.88.233.94-.194.023-.183.036-.398-.258-.429l.257-.085zm2.336-2.483h2.078v-1.505h-2.097c.296-1.841 1.749-3.296 3.603-3.613v2.107h1.504v-2.107c1.854.317 3.308 1.772 3.604 3.613h-2.098v1.505h2.078c-.339 1.783-1.771 3.179-3.584 3.487v-1.981h-1.504v1.981c-1.812-.308-3.244-1.704-3.584-3.487zm4.336 7.528c3.387-2.93 6.022-5.173 6.022-8.453 0-3.231-2.696-5.85-6.022-5.85s-6.022 2.619-6.022 5.85c0 3.28 2.635 5.523 6.022 8.453z"/></svg>